<?xml version="1.0" encoding="us-ascii" standalone="no"?><svg xmlns="http://www.w3.org/2000/svg" xmlns:xlink="http://www.w3.org/1999/xlink" contentStyleType="text/css" height="417px" preserveAspectRatio="none" style="width:833px;height:417px;background:#FFFFFF;" version="1.1" viewBox="0 0 833 417" width="833px" zoomAndPan="magnify"><defs/><g><!--cluster factory_musik--><g id="cluster_factory_musik"><path d="M8.5,6 L124.5,6 A3.75,3.75 0 0 1 127,8.5 L134,28.2969 L823.5,28.2969 A2.5,2.5 0 0 1 826,30.7969 L826,407.5 A2.5,2.5 0 0 1 823.5,410 L8.5,410 A2.5,2.5 0 0 1 6,407.5 L6,8.5 A2.5,2.5 0 0 1 8.5,6 " fill="none" style="stroke:#000000;stroke-width:1.5;"/><line style="stroke:#000000;stroke-width:1.5;" x1="6" x2="134" y1="28.2969" y2="28.2969"/><text fill="#000000" font-family="sans-serif" font-size="14" font-weight="bold" lengthAdjust="spacing" textLength="115" x="10" y="20.9951">factory_musik</text></g><!--cluster factory_musik.dart--><g id="cluster_factory_musik.dart"><path d="M32.5,49 L188.5,49 A3.75,3.75 0 0 1 191,51.5 L198,71.2969 L799.5,71.2969 A2.5,2.5 0 0 1 802,73.7969 L802,383.5 A2.5,2.5 0 0 1 799.5,386 L32.5,386 A2.5,2.5 0 0 1 30,383.5 L30,51.5 A2.5,2.5 0 0 1 32.5,49 " fill="none" style="stroke:#000000;stroke-width:1.5;"/><line style="stroke:#000000;stroke-width:1.5;" x1="30" x2="198" y1="71.2969" y2="71.2969"/><text fill="#000000" font-family="sans-serif" font-size="14" font-weight="bold" lengthAdjust="spacing" textLength="155" x="34" y="63.9951">factory_musik.dart</text></g><!--class Track--><g id="elem_Track"><rect codeLine="3" fill="#F1F1F1" height="113.1875" id="Track" rx="2.5" ry="2.5" style="stroke:#181818;stroke-width:0.5;" width="150" x="545" y="84"/><ellipse cx="595.75" cy="100" fill="#A9DCDF" rx="11" ry="11" style="stroke:#181818;stroke-width:1.0;"/><path d="M597.8281,101.8125 L598.2188,102.7969 L597.8281,102.7969 C597.375,102.7969 597.2656,102.8125 597.1094,102.9219 C596.8594,103.0781 596.7031,103.3594 596.7031,103.6563 C596.7031,103.9219 596.8438,104.1719 597.0625,104.3281 C597.2031,104.4531 597.4063,104.5 597.8281,104.5 L600.1875,104.5 C600.5469,104.5 600.7656,104.4688 600.9063,104.375 C601.1563,104.2344 601.3125,103.9375 601.3125,103.6563 C601.3125,103.375 601.1719,103.125 600.9531,102.9688 C600.7813,102.8281 600.625,102.7969 600.1563,102.7969 L596.7656,94.5938 L593.0938,94.5938 C592.6406,94.5938 592.5156,94.6094 592.3594,94.7031 C592.1094,94.875 591.9531,95.1563 591.9531,95.4375 C591.9531,95.7188 592.0938,95.9688 592.3125,96.1406 C592.4844,96.25 592.6563,96.2813 593.0938,96.2813 L594.1719,96.2813 L591.5313,102.7969 C591.1094,102.7969 590.9531,102.8125 590.7969,102.9219 C590.5469,103.0781 590.3906,103.3594 590.3906,103.6563 C590.3906,104.2188 590.7656,104.5 591.5156,104.5 L593.7813,104.5 C594.1406,104.5 594.3594,104.4688 594.4844,104.375 C594.75,104.2344 594.8906,103.9375 594.8906,103.6563 C594.8906,103.375 594.7656,103.125 594.5469,102.9531 C594.375,102.8281 594.2344,102.7969 593.7813,102.7969 L593.3906,102.7969 L593.7813,101.8125 L597.8281,101.8125 Z M597.125,100.1094 L594.4531,100.1094 L595.7969,96.8438 L597.125,100.1094 Z " fill="#000000"/><text fill="#000000" font-family="sans-serif" font-size="14" font-style="italic" lengthAdjust="spacing" textLength="40" x="616.25" y="104.8467">Track</text><line style="stroke:#181818;stroke-width:0.5;" x1="546" x2="694" y1="116" y2="116"/><ellipse cx="556" cy="129.6484" fill="none" rx="3" ry="3" style="stroke:#038048;stroke-width:1.0;"/><text fill="#000000" font-family="sans-serif" font-size="14" lengthAdjust="spacing" textLength="94" x="565" y="132.9951">String? artist</text><ellipse cx="556" cy="145.9453" fill="none" rx="3" ry="3" style="stroke:#038048;stroke-width:1.0;"/><text fill="#000000" font-family="sans-serif" font-size="14" lengthAdjust="spacing" textLength="86" x="565" y="149.292">String? title</text><line style="stroke:#181818;stroke-width:0.5;" x1="546" x2="694" y1="156.5938" y2="156.5938"/><ellipse cx="556" cy="170.2422" fill="#84BE84" rx="3" ry="3" style="stroke:#038048;stroke-width:1.0;"/><text fill="#000000" font-family="sans-serif" font-size="14" lengthAdjust="spacing" textLength="124" x="565" y="173.5889">String getArtist()</text><ellipse cx="556" cy="186.5391" fill="#84BE84" rx="3" ry="3" style="stroke:#038048;stroke-width:1.0;"/><text fill="#000000" font-family="sans-serif" font-size="14" lengthAdjust="spacing" textLength="116" x="565" y="189.8857">String getTitle()</text></g><!--class Song--><g id="elem_Song"><rect codeLine="10" fill="#F1F1F1" height="113.1875" id="Song" rx="2.5" ry="2.5" style="stroke:#181818;stroke-width:0.5;" width="150" x="451" y="257"/><ellipse cx="503.75" cy="273" fill="#ADD1B2" rx="11" ry="11" style="stroke:#181818;stroke-width:1.0;"/><path d="M506.0938,268.6719 C505.1563,268.2344 504.5625,268.0938 503.6875,268.0938 C501.0625,268.0938 499.0625,270.1719 499.0625,272.8906 L499.0625,274.0156 C499.0625,276.5938 501.1719,278.4844 504.0625,278.4844 C505.2813,278.4844 506.4375,278.1875 507.1875,277.6406 C507.7656,277.2344 508.0938,276.7813 508.0938,276.3906 C508.0938,275.9375 507.7031,275.5469 507.2344,275.5469 C507.0156,275.5469 506.8125,275.625 506.625,275.8125 C506.1719,276.2969 506.1719,276.2969 505.9844,276.3906 C505.5625,276.6563 504.875,276.7813 504.1094,276.7813 C502.0625,276.7813 500.7656,275.6875 500.7656,273.9844 L500.7656,272.8906 C500.7656,271.1094 502.0156,269.7969 503.75,269.7969 C504.3281,269.7969 504.9375,269.9531 505.4063,270.2031 C505.8906,270.4844 506.0625,270.7031 506.1563,271.1094 C506.2188,271.5156 506.25,271.6406 506.3906,271.7656 C506.5313,271.9063 506.7656,272.0156 506.9844,272.0156 C507.25,272.0156 507.5156,271.875 507.6875,271.6563 C507.7969,271.5 507.8281,271.3125 507.8281,270.8906 L507.8281,269.4688 C507.8281,269.0313 507.8125,268.9063 507.7188,268.75 C507.5625,268.4844 507.2813,268.3438 506.9844,268.3438 C506.6875,268.3438 506.4844,268.4375 506.2656,268.75 L506.0938,268.6719 Z " fill="#000000"/><text fill="#000000" font-family="sans-serif" font-size="14" lengthAdjust="spacing" textLength="36" x="524.25" y="277.8467">Song</text><line style="stroke:#181818;stroke-width:0.5;" x1="452" x2="600" y1="289" y2="289"/><ellipse cx="462" cy="302.6484" fill="none" rx="3" ry="3" style="stroke:#038048;stroke-width:1.0;"/><text fill="#000000" font-family="sans-serif" font-size="14" lengthAdjust="spacing" textLength="94" x="471" y="305.9951">String? artist</text><ellipse cx="462" cy="318.9453" fill="none" rx="3" ry="3" style="stroke:#038048;stroke-width:1.0;"/><text fill="#000000" font-family="sans-serif" font-size="14" lengthAdjust="spacing" textLength="86" x="471" y="322.292">String? title</text><line style="stroke:#181818;stroke-width:0.5;" x1="452" x2="600" y1="329.5938" y2="329.5938"/><ellipse cx="462" cy="343.2422" fill="#84BE84" rx="3" ry="3" style="stroke:#038048;stroke-width:1.0;"/><text fill="#000000" font-family="sans-serif" font-size="14" lengthAdjust="spacing" textLength="124" x="471" y="346.5889">String getArtist()</text><ellipse cx="462" cy="359.5391" fill="#84BE84" rx="3" ry="3" style="stroke:#038048;stroke-width:1.0;"/><text fill="#000000" font-family="sans-serif" font-size="14" lengthAdjust="spacing" textLength="116" x="471" y="362.8857">String getTitle()</text></g><!--class Podcast--><g id="elem_Podcast"><rect codeLine="19" fill="#F1F1F1" height="113.1875" id="Podcast" rx="2.5" ry="2.5" style="stroke:#181818;stroke-width:0.5;" width="150" x="636" y="257"/><ellipse cx="678.45" cy="273" fill="#ADD1B2" rx="11" ry="11" style="stroke:#181818;stroke-width:1.0;"/><path d="M680.7938,268.6719 C679.8563,268.2344 679.2625,268.0938 678.3875,268.0938 C675.7625,268.0938 673.7625,270.1719 673.7625,272.8906 L673.7625,274.0156 C673.7625,276.5938 675.8719,278.4844 678.7625,278.4844 C679.9813,278.4844 681.1375,278.1875 681.8875,277.6406 C682.4656,277.2344 682.7938,276.7813 682.7938,276.3906 C682.7938,275.9375 682.4031,275.5469 681.9344,275.5469 C681.7156,275.5469 681.5125,275.625 681.325,275.8125 C680.8719,276.2969 680.8719,276.2969 680.6844,276.3906 C680.2625,276.6563 679.575,276.7813 678.8094,276.7813 C676.7625,276.7813 675.4656,275.6875 675.4656,273.9844 L675.4656,272.8906 C675.4656,271.1094 676.7156,269.7969 678.45,269.7969 C679.0281,269.7969 679.6375,269.9531 680.1063,270.2031 C680.5906,270.4844 680.7625,270.7031 680.8563,271.1094 C680.9188,271.5156 680.95,271.6406 681.0906,271.7656 C681.2313,271.9063 681.4656,272.0156 681.6844,272.0156 C681.95,272.0156 682.2156,271.875 682.3875,271.6563 C682.4969,271.5 682.5281,271.3125 682.5281,270.8906 L682.5281,269.4688 C682.5281,269.0313 682.5125,268.9063 682.4188,268.75 C682.2625,268.4844 681.9813,268.3438 681.6844,268.3438 C681.3875,268.3438 681.1844,268.4375 680.9656,268.75 L680.7938,268.6719 Z " fill="#000000"/><text fill="#000000" font-family="sans-serif" font-size="14" lengthAdjust="spacing" textLength="57" x="698.55" y="277.8467">Podcast</text><line style="stroke:#181818;stroke-width:0.5;" x1="637" x2="785" y1="289" y2="289"/><ellipse cx="647" cy="302.6484" fill="none" rx="3" ry="3" style="stroke:#038048;stroke-width:1.0;"/><text fill="#000000" font-family="sans-serif" font-size="14" lengthAdjust="spacing" textLength="80" x="656" y="305.9951">String host</text><ellipse cx="647" cy="318.9453" fill="none" rx="3" ry="3" style="stroke:#038048;stroke-width:1.0;"/><text fill="#000000" font-family="sans-serif" font-size="14" lengthAdjust="spacing" textLength="86" x="656" y="322.292">String? title</text><line style="stroke:#181818;stroke-width:0.5;" x1="637" x2="785" y1="329.5938" y2="329.5938"/><ellipse cx="647" cy="343.2422" fill="#84BE84" rx="3" ry="3" style="stroke:#038048;stroke-width:1.0;"/><text fill="#000000" font-family="sans-serif" font-size="14" lengthAdjust="spacing" textLength="124" x="656" y="346.5889">String getArtist()</text><ellipse cx="647" cy="359.5391" fill="#84BE84" rx="3" ry="3" style="stroke:#038048;stroke-width:1.0;"/><text fill="#000000" font-family="sans-serif" font-size="14" lengthAdjust="spacing" textLength="116" x="656" y="362.8857">String getTitle()</text></g><!--class TrackFactory--><g id="elem_TrackFactory"><rect codeLine="28" fill="#F1F1F1" height="64.2969" id="TrackFactory" rx="2.5" ry="2.5" style="stroke:#181818;stroke-width:0.5;" width="167" x="251.5" y="108.5"/><ellipse cx="285.4" cy="124.5" fill="#A9DCDF" rx="11" ry="11" style="stroke:#181818;stroke-width:1.0;"/><path d="M287.4781,126.3125 L287.8688,127.2969 L287.4781,127.2969 C287.025,127.2969 286.9156,127.3125 286.7594,127.4219 C286.5094,127.5781 286.3531,127.8594 286.3531,128.1563 C286.3531,128.4219 286.4938,128.6719 286.7125,128.8281 C286.8531,128.9531 287.0563,129 287.4781,129 L289.8375,129 C290.1969,129 290.4156,128.9688 290.5563,128.875 C290.8063,128.7344 290.9625,128.4375 290.9625,128.1563 C290.9625,127.875 290.8219,127.625 290.6031,127.4688 C290.4313,127.3281 290.275,127.2969 289.8063,127.2969 L286.4156,119.0938 L282.7438,119.0938 C282.2906,119.0938 282.1656,119.1094 282.0094,119.2031 C281.7594,119.375 281.6031,119.6563 281.6031,119.9375 C281.6031,120.2188 281.7438,120.4688 281.9625,120.6406 C282.1344,120.75 282.3063,120.7813 282.7438,120.7813 L283.8219,120.7813 L281.1813,127.2969 C280.7594,127.2969 280.6031,127.3125 280.4469,127.4219 C280.1969,127.5781 280.0406,127.8594 280.0406,128.1563 C280.0406,128.7188 280.4156,129 281.1656,129 L283.4313,129 C283.7906,129 284.0094,128.9688 284.1344,128.875 C284.4,128.7344 284.5406,128.4375 284.5406,128.1563 C284.5406,127.875 284.4156,127.625 284.1969,127.4531 C284.025,127.3281 283.8844,127.2969 283.4313,127.2969 L283.0406,127.2969 L283.4313,126.3125 L287.4781,126.3125 Z M286.775,124.6094 L284.1031,124.6094 L285.4469,121.3438 L286.775,124.6094 Z " fill="#000000"/><text fill="#000000" font-family="sans-serif" font-size="14" font-style="italic" lengthAdjust="spacing" textLength="93" x="303.6" y="129.3467">TrackFactory</text><line style="stroke:#181818;stroke-width:0.5;" x1="252.5" x2="417.5" y1="140.5" y2="140.5"/><line style="stroke:#181818;stroke-width:0.5;" x1="252.5" x2="417.5" y1="148.5" y2="148.5"/><ellipse cx="262.5" cy="162.1484" fill="#84BE84" rx="3" ry="3" style="stroke:#038048;stroke-width:1.0;"/><text fill="#000000" font-family="sans-serif" font-size="14" lengthAdjust="spacing" textLength="141" x="271.5" y="165.4951">Track createTrack()</text></g><!--class SongFactory--><g id="elem_SongFactory"><rect codeLine="32" fill="#F1F1F1" height="96.8906" id="SongFactory" rx="2.5" ry="2.5" style="stroke:#181818;stroke-width:0.5;" width="167" x="46.5" y="265"/><ellipse cx="81.75" cy="281" fill="#ADD1B2" rx="11" ry="11" style="stroke:#181818;stroke-width:1.0;"/><path d="M84.0938,276.6719 C83.1563,276.2344 82.5625,276.0938 81.6875,276.0938 C79.0625,276.0938 77.0625,278.1719 77.0625,280.8906 L77.0625,282.0156 C77.0625,284.5938 79.1719,286.4844 82.0625,286.4844 C83.2813,286.4844 84.4375,286.1875 85.1875,285.6406 C85.7656,285.2344 86.0938,284.7813 86.0938,284.3906 C86.0938,283.9375 85.7031,283.5469 85.2344,283.5469 C85.0156,283.5469 84.8125,283.625 84.625,283.8125 C84.1719,284.2969 84.1719,284.2969 83.9844,284.3906 C83.5625,284.6563 82.875,284.7813 82.1094,284.7813 C80.0625,284.7813 78.7656,283.6875 78.7656,281.9844 L78.7656,280.8906 C78.7656,279.1094 80.0156,277.7969 81.75,277.7969 C82.3281,277.7969 82.9375,277.9531 83.4063,278.2031 C83.8906,278.4844 84.0625,278.7031 84.1563,279.1094 C84.2188,279.5156 84.25,279.6406 84.3906,279.7656 C84.5313,279.9063 84.7656,280.0156 84.9844,280.0156 C85.25,280.0156 85.5156,279.875 85.6875,279.6563 C85.7969,279.5 85.8281,279.3125 85.8281,278.8906 L85.8281,277.4688 C85.8281,277.0313 85.8125,276.9063 85.7188,276.75 C85.5625,276.4844 85.2813,276.3438 84.9844,276.3438 C84.6875,276.3438 84.4844,276.4375 84.2656,276.75 L84.0938,276.6719 Z " fill="#000000"/><text fill="#000000" font-family="sans-serif" font-size="14" lengthAdjust="spacing" textLength="90" x="100.25" y="285.8467">SongFactory</text><line style="stroke:#181818;stroke-width:0.5;" x1="47.5" x2="212.5" y1="297" y2="297"/><ellipse cx="57.5" cy="310.6484" fill="none" rx="3" ry="3" style="stroke:#038048;stroke-width:1.0;"/><text fill="#000000" font-family="sans-serif" font-size="14" lengthAdjust="spacing" textLength="87" x="66.5" y="313.9951">String artist</text><ellipse cx="57.5" cy="326.9453" fill="none" rx="3" ry="3" style="stroke:#038048;stroke-width:1.0;"/><text fill="#000000" font-family="sans-serif" font-size="14" lengthAdjust="spacing" textLength="79" x="66.5" y="330.292">String title</text><line style="stroke:#181818;stroke-width:0.5;" x1="47.5" x2="212.5" y1="337.5938" y2="337.5938"/><ellipse cx="57.5" cy="351.2422" fill="#84BE84" rx="3" ry="3" style="stroke:#038048;stroke-width:1.0;"/><text fill="#000000" font-family="sans-serif" font-size="14" lengthAdjust="spacing" textLength="141" x="66.5" y="354.5889">Track createTrack()</text></g><!--class PodcastFactory--><g id="elem_PodcastFactory"><rect codeLine="40" fill="#F1F1F1" height="96.8906" id="PodcastFactory" rx="2.5" ry="2.5" style="stroke:#181818;stroke-width:0.5;" width="167" x="248.5" y="265"/><ellipse cx="274.3" cy="281" fill="#ADD1B2" rx="11" ry="11" style="stroke:#181818;stroke-width:1.0;"/><path d="M276.6438,276.6719 C275.7063,276.2344 275.1125,276.0938 274.2375,276.0938 C271.6125,276.0938 269.6125,278.1719 269.6125,280.8906 L269.6125,282.0156 C269.6125,284.5938 271.7219,286.4844 274.6125,286.4844 C275.8313,286.4844 276.9875,286.1875 277.7375,285.6406 C278.3156,285.2344 278.6438,284.7813 278.6438,284.3906 C278.6438,283.9375 278.2531,283.5469 277.7844,283.5469 C277.5656,283.5469 277.3625,283.625 277.175,283.8125 C276.7219,284.2969 276.7219,284.2969 276.5344,284.3906 C276.1125,284.6563 275.425,284.7813 274.6594,284.7813 C272.6125,284.7813 271.3156,283.6875 271.3156,281.9844 L271.3156,280.8906 C271.3156,279.1094 272.5656,277.7969 274.3,277.7969 C274.8781,277.7969 275.4875,277.9531 275.9563,278.2031 C276.4406,278.4844 276.6125,278.7031 276.7063,279.1094 C276.7688,279.5156 276.8,279.6406 276.9406,279.7656 C277.0813,279.9063 277.3156,280.0156 277.5344,280.0156 C277.8,280.0156 278.0656,279.875 278.2375,279.6563 C278.3469,279.5 278.3781,279.3125 278.3781,278.8906 L278.3781,277.4688 C278.3781,277.0313 278.3625,276.9063 278.2688,276.75 C278.1125,276.4844 277.8313,276.3438 277.5344,276.3438 C277.2375,276.3438 277.0344,276.4375 276.8156,276.75 L276.6438,276.6719 Z " fill="#000000"/><text fill="#000000" font-family="sans-serif" font-size="14" lengthAdjust="spacing" textLength="111" x="290.7" y="285.8467">PodcastFactory</text><line style="stroke:#181818;stroke-width:0.5;" x1="249.5" x2="414.5" y1="297" y2="297"/><ellipse cx="259.5" cy="310.6484" fill="none" rx="3" ry="3" style="stroke:#038048;stroke-width:1.0;"/><text fill="#000000" font-family="sans-serif" font-size="14" lengthAdjust="spacing" textLength="80" x="268.5" y="313.9951">String host</text><ellipse cx="259.5" cy="326.9453" fill="none" rx="3" ry="3" style="stroke:#038048;stroke-width:1.0;"/><text fill="#000000" font-family="sans-serif" font-size="14" lengthAdjust="spacing" textLength="79" x="268.5" y="330.292">String title</text><line style="stroke:#181818;stroke-width:0.5;" x1="249.5" x2="414.5" y1="337.5938" y2="337.5938"/><ellipse cx="259.5" cy="351.2422" fill="#84BE84" rx="3" ry="3" style="stroke:#038048;stroke-width:1.0;"/><text fill="#000000" font-family="sans-serif" font-size="14" lengthAdjust="spacing" textLength="141" x="268.5" y="354.5889">Track createTrack()</text></g><!--class MusicApp--><g id="elem_MusicApp"><rect codeLine="48" fill="#F1F1F1" height="80.5938" id="MusicApp" rx="2.5" ry="2.5" style="stroke:#181818;stroke-width:0.5;" width="170" x="46" y="100"/><ellipse cx="92.25" cy="116" fill="#ADD1B2" rx="11" ry="11" style="stroke:#181818;stroke-width:1.0;"/><path d="M94.5938,111.6719 C93.6563,111.2344 93.0625,111.0938 92.1875,111.0938 C89.5625,111.0938 87.5625,113.1719 87.5625,115.8906 L87.5625,117.0156 C87.5625,119.5938 89.6719,121.4844 92.5625,121.4844 C93.7813,121.4844 94.9375,121.1875 95.6875,120.6406 C96.2656,120.2344 96.5938,119.7813 96.5938,119.3906 C96.5938,118.9375 96.2031,118.5469 95.7344,118.5469 C95.5156,118.5469 95.3125,118.625 95.125,118.8125 C94.6719,119.2969 94.6719,119.2969 94.4844,119.3906 C94.0625,119.6563 93.375,119.7813 92.6094,119.7813 C90.5625,119.7813 89.2656,118.6875 89.2656,116.9844 L89.2656,115.8906 C89.2656,114.1094 90.5156,112.7969 92.25,112.7969 C92.8281,112.7969 93.4375,112.9531 93.9063,113.2031 C94.3906,113.4844 94.5625,113.7031 94.6563,114.1094 C94.7188,114.5156 94.75,114.6406 94.8906,114.7656 C95.0313,114.9063 95.2656,115.0156 95.4844,115.0156 C95.75,115.0156 96.0156,114.875 96.1875,114.6563 C96.2969,114.5 96.3281,114.3125 96.3281,113.8906 L96.3281,112.4688 C96.3281,112.0313 96.3125,111.9063 96.2188,111.75 C96.0625,111.4844 95.7813,111.3438 95.4844,111.3438 C95.1875,111.3438 94.9844,111.4375 94.7656,111.75 L94.5938,111.6719 Z " fill="#000000"/><text fill="#000000" font-family="sans-serif" font-size="14" lengthAdjust="spacing" textLength="69" x="112.75" y="120.8467">MusicApp</text><line style="stroke:#181818;stroke-width:0.5;" x1="47" x2="215" y1="132" y2="132"/><ellipse cx="57" cy="145.6484" fill="none" rx="3" ry="3" style="stroke:#038048;stroke-width:1.0;"/><text fill="#000000" font-family="sans-serif" font-size="14" lengthAdjust="spacing" textLength="144" x="66" y="148.9951">List&lt;Track&gt; playlist</text><line style="stroke:#181818;stroke-width:0.5;" x1="47" x2="215" y1="156.2969" y2="156.2969"/><ellipse cx="57" cy="169.9453" fill="#84BE84" rx="3" ry="3" style="stroke:#038048;stroke-width:1.0;"/><text fill="#000000" font-family="sans-serif" font-size="14" lengthAdjust="spacing" textLength="110" x="66" y="173.292">void addTrack()</text></g><!--reverse link Track to Song--><g id="link_Track_Song"><path codeLine="17" d="M579.806,214.62 C572.007,228.807 563.953,243.458 556.527,256.967 " fill="none" id="Track-backto-Song" style="stroke:#181818;stroke-width:1.0;"/><polygon fill="none" points="573.712,211.173,589.481,197.019,585.981,217.917,573.712,211.173" style="stroke:#181818;stroke-width:1.0;"/></g><!--reverse link Track to Podcast--><g id="link_Track_Podcast"><path codeLine="26" d="M659.163,215.093 C666.635,229.132 674.338,243.608 681.448,256.967 " fill="none" id="Track-backto-Podcast" style="stroke:#181818;stroke-width:1.0;"/><polygon fill="none" points="652.761,217.963,649.545,197.019,665.12,211.386,652.761,217.963" style="stroke:#181818;stroke-width:1.0;"/></g><!--reverse link TrackFactory to SongFactory--><g id="link_TrackFactory_SongFactory"><path codeLine="38" d="M282.041,185.675 C252.945,209.946 216.835,240.067 187.108,264.863 " fill="none" id="TrackFactory-backto-SongFactory" style="stroke:#181818;stroke-width:1.0;"/><polygon fill="none" points="277.558,180.3,297.4,172.864,286.525,191.051,277.558,180.3" style="stroke:#181818;stroke-width:1.0;"/></g><!--reverse link TrackFactory to PodcastFactory--><g id="link_TrackFactory_PodcastFactory"><path codeLine="46" d="M334.098,192.91 C333.697,215.753 333.228,242.478 332.836,264.863 " fill="none" id="TrackFactory-backto-PodcastFactory" style="stroke:#181818;stroke-width:1.0;"/><polygon fill="none" points="327.1,192.738,334.45,172.864,341.098,192.984,327.1,192.738" style="stroke:#181818;stroke-width:1.0;"/></g><!--SRC=[pPB1QW8n48RlUOh1arBi0uIbPIyzAGZhNSOatGRNJKYcmgA-k-cwrcPfmImKlKt-J9B_c_nU4TIuLTwYK8Mow92C0yuPmxKdXu90LEWzZDv3RLopsdvwlU4yMZvBTCJvClHlHh1d04y5ELsNhn0sjAUV2ccgr5M0Kb7UDeqdiRhyQWpYaR7RFHIcBl_5Gi80iiDqUhlP5Bg5aG8zHO3mOHwJxc9sU9RUpXiTRYk1S0f9jVMGRCHNThFe9-GwmZ_UJ2T8oiJbr81e_CeN9-IUT3sNAO3pK8lSsWvj5duiQrsyWAsmgReVt1aj0QNyvZa1]--></g></svg>